<svg width="26" height="26" viewBox="0 0 26 26" fill="none" xmlns="http://www.w3.org/2000/svg">
<rect width="26" height="26" fill="white" fill-opacity="0.01"/>
<path d="M17.6849 15.9077C17.0969 15.3272 16.3627 15.3272 15.7784 15.9077C15.3326 16.3497 14.8869 16.7917 14.4486 17.2412C14.3288 17.3648 14.2276 17.391 14.0815 17.3086C13.7931 17.1513 13.486 17.0239 13.2088 16.8516C11.9165 16.0388 10.834 14.9938 9.8751 13.8177C9.39939 13.2334 8.97613 12.6078 8.68021 11.9037C8.62028 11.7613 8.63152 11.6677 8.74764 11.5516C9.19338 11.1208 9.62788 10.6788 10.0661 10.2368C10.6767 9.62257 10.6767 8.9034 10.0624 8.28538C9.71403 7.93329 9.36568 7.58869 9.01733 7.2366C8.65774 6.87702 8.3019 6.51369 7.93856 6.15786C7.35048 5.58478 6.61632 5.58478 6.03199 6.16161C5.5825 6.60359 5.15174 7.05681 4.69477 7.4913C4.2715 7.89209 4.05799 8.38276 4.01304 8.95584C3.94188 9.88851 4.17037 10.7687 4.4925 11.6265C5.15174 13.4019 6.1556 14.9788 7.37296 16.4246C9.01733 18.3798 10.9801 19.9268 13.2762 21.043C14.31 21.5449 15.3813 21.9307 16.5462 21.9944C17.3478 22.0393 18.0445 21.8371 18.6026 21.2115C18.9847 20.7845 19.4155 20.395 19.82 19.9867C20.4193 19.3799 20.4231 18.6458 19.8275 18.0465C19.1158 17.3311 18.4004 16.6194 17.6849 15.9077Z" fill="#17A24C"/>
<path d="M16.9695 12.922L18.3517 12.686C18.1345 11.4162 17.5351 10.2663 16.6249 9.3524C15.6623 8.38978 14.4449 7.78298 13.104 7.5957L12.9092 8.98533C13.9467 9.13141 14.8907 9.59961 15.6361 10.345C16.3403 11.0492 16.801 11.9406 16.9695 12.922Z" fill="#17A24C"/>
<path d="M19.1309 6.9141C17.5352 5.31846 15.5163 4.31089 13.2876 4L13.0928 5.38963C15.0181 5.65931 16.7636 6.53204 18.142 7.90669C19.4493 9.21391 20.307 10.8657 20.6179 12.6824L22.0001 12.4464C21.6368 10.3413 20.6441 8.43108 19.1309 6.9141Z" fill="#17A24C"/>
</svg>
