<svg width="26" height="26" viewBox="0 0 26 26" fill="none" xmlns="http://www.w3.org/2000/svg">
<rect width="26" height="26" fill="white" fill-opacity="0.01"/>
<path fill-rule="evenodd" clip-rule="evenodd" d="M9.66667 6.25H17.6C18.2259 6.25 18.7333 6.75368 18.7333 7.375V18.625C18.7333 19.2463 18.2259 19.75 17.6 19.75H9.66667C9.04074 19.75 8.53333 19.2463 8.53333 18.625C8.53333 18.0037 8.02592 17.5 7.4 17.5C6.77408 17.5 6.26667 18.0037 6.26667 18.625C6.26667 20.489 7.7889 22 9.66667 22H17.6C19.4778 22 21 20.489 21 18.625V7.375C21 5.51104 19.4778 4 17.6 4H9.66667C7.7889 4 6.26667 5.51104 6.26667 7.375C6.26667 7.99632 6.77408 8.5 7.4 8.5C8.02592 8.5 8.53333 7.99632 8.53333 7.375C8.53333 6.75368 9.04074 6.25 9.66667 6.25ZM11.1319 10.4205C10.6894 9.98116 10.6894 9.26884 11.1319 8.8295C11.5745 8.39017 12.2921 8.39017 12.7347 8.8295L16.1347 12.2045L16.9361 13L16.1347 13.7955L12.7347 17.1705C12.2921 17.6098 11.5745 17.6098 11.1319 17.1705C10.6894 16.7312 10.6894 16.0188 11.1319 15.5795L12.5972 14.125H5.13333C4.50741 14.125 4 13.6213 4 13C4 12.3787 4.50741 11.875 5.13333 11.875H12.5972L11.1319 10.4205Z" fill="#17A24C"/>
</svg>
