<svg width="26" height="26" viewBox="0 0 26 26" fill="none" xmlns="http://www.w3.org/2000/svg">
<rect width="26" height="26" fill="white" fill-opacity="0.01"/>
<path d="M13 4C9.14018 4 6 6.92437 6 10.5189C6 14.9798 12.2643 21.5287 12.531 21.8053C12.7815 22.0651 13.2189 22.0647 13.469 21.8053C13.7357 21.5287 20 14.9798 20 10.5189C19.9999 6.92437 16.8598 4 13 4ZM13 13.7987C11.058 13.7987 9.47816 12.3274 9.47816 10.5189C9.47816 8.71038 11.0581 7.23909 13 7.23909C14.9419 7.23909 16.5218 8.71042 16.5218 10.5189C16.5218 12.3274 14.9419 13.7987 13 13.7987Z" fill="#17A24C"/>
</svg>
